<svg xmlns="http://www.w3.org/2000/svg" viewBox="0 0 329.6 345.6"><defs><style>.cls-1{opacity:0.1;}.cls-2{fill:#f29b00;}.cls-3{fill:#f3c800;}.cls-4{fill:#ddd;}.cls-10,.cls-5{fill:#fff;}.cls-6{fill:#d1d1d1;}.cls-7{fill:#e0e0e0;}.cls-8{fill:#bcbcbc;}.cls-9{fill:#fcdd5e;}.cls-10{opacity:0.2;}</style></defs><g id="레이어_2" data-name="레이어 2"><g id="Layer_1" data-name="Layer 1"><path class="cls-1" d="M329.47,113l.08-1.07a18.45,18.45,0,0,0-2.85-11.27h0a.18.18,0,0,0-.05-.07,18.25,18.25,0,0,0-2.57-3.1c-.23-.23-.49-.43-.73-.64A17.06,17.06,0,0,0,320.78,95c-.36-.22-.72-.42-1.09-.62a18.45,18.45,0,0,0-2.87-1.14c-.4-.13-.78-.28-1.19-.38a18.75,18.75,0,0,0-4.41-.55H287.34l7.87-39.45L272.07,48.2V34.39H202.88L79.94,9.85,75,34.39H52.53v87.42H28.23A18.15,18.15,0,0,0,9.9,141.45l4.94,71.46H15l.92,13.32h0l6,99.72A21.47,21.47,0,0,0,43,345.6H294.8A21.47,21.47,0,0,0,315.86,326l5.93-98.75,7.76-112A18.07,18.07,0,0,0,329.47,113Z"/><path class="cls-2" d="M6.09,216.38l6,99.72a21.46,21.46,0,0,0,21,19.65H285A21.46,21.46,0,0,0,306,316.1L312,217.29Z"/><path class="cls-3" d="M246.91,105.4H18.38A18.16,18.16,0,0,0,.05,125L5,196.5H246.91Z"/><path class="cls-2" d="M246.91,112H18.38A18.16,18.16,0,0,0,.05,131.6L5,203.07H246.91Z"/><path class="cls-3" d="M198.6,85.7c-10.83,0-22.09,8.53-25,19l-2.65,9.42c-2.92,10.43-14.18,19-25,19H20A18.18,18.18,0,0,0,1.68,152.69L12.1,303a21.46,21.46,0,0,0,21,19.65H285A21.46,21.46,0,0,0,306,303L319.7,105.35A18.16,18.16,0,0,0,301.37,85.7Z"/><polygon class="cls-4" points="234.84 296.1 19.54 253.13 70.09 0 285.37 42.97 234.84 296.1"/><rect class="cls-5" x="42.68" y="24.54" width="219.54" height="233.31"/><rect class="cls-6" x="80.45" y="51.78" width="55.62" height="11.03"/><rect class="cls-6" x="80.45" y="84.6" width="146.86" height="11.03"/><rect class="cls-6" x="80.45" y="109.99" width="146.86" height="11.03"/><rect class="cls-7" x="80.45" y="135.39" width="146.86" height="11.03"/><rect class="cls-8" x="80.45" y="60.05" width="55.62" height="2.76"/><rect class="cls-8" x="80.45" y="92.87" width="146.86" height="2.76"/><rect class="cls-8" x="80.45" y="118.65" width="146.86" height="2.75"/><rect class="cls-8" x="80.45" y="143.66" width="146.86" height="2.76"/><path class="cls-3" d="M198.6,82.42c-10.83,0-22.09,8.53-25,19l-2.65,12.7c-2.92,10.43-14.18,19-25,19H20A18.18,18.18,0,0,0,1.68,152.69L12.1,303a21.46,21.46,0,0,0,21,19.65H285A21.46,21.46,0,0,0,306,303L319.7,102.06a18.16,18.16,0,0,0-18.33-19.64Z"/><path class="cls-9" d="M20.22,139.6H149.3c11.11,0,22.65-8.53,25.65-19l2.7-9.42c3-10.43,14.54-22.24,25.64-22.24H308.65a19.67,19.67,0,0,1,8.21,1.81,18.2,18.2,0,0,0-15.49-8.37H198.6c-10.83,0-22.09,8.53-25,19l-2.65,12.7c-2.92,10.43-14.18,19-25,19H20A18.18,18.18,0,0,0,1.68,152.69l.12,1.67A18.43,18.43,0,0,1,20.22,139.6Z"/><path class="cls-9" d="M306.4,289.25l-.38,5.52A21.5,21.5,0,0,1,285,314.42H33.15a21.49,21.49,0,0,1-21.06-19.65l-.39-5.52h-.57l1,13.72a21.49,21.49,0,0,0,21.06,19.65H285A21.5,21.5,0,0,0,306,303l.94-13.72Z"/><path class="cls-10" d="M306,303l1.49-21.42C155.19,263,88.31,181.86,61.42,133H20A18.18,18.18,0,0,0,1.68,152.69L12.1,303a21.46,21.46,0,0,0,21,19.65H285A21.46,21.46,0,0,0,306,303Z"/></g></g></svg>