<svg xmlns="http://www.w3.org/2000/svg" viewBox="0 0 899.57 376.22"><defs><style>.cls-1{opacity:0.7;}.cls-2{fill:#fff;}.cls-3{opacity:0.4;}</style></defs><g id="레이어_2" data-name="레이어 2"><g id="격리_모드" data-name="격리 모드"><g class="cls-1"><path class="cls-2" d="M505.08,2.5V35.38c0,2.46-.32,5.34.4,7.73,2.55,8.44,12,7.22,18.93,7.22h22c1.6,0,5.2-2.4,2-2.4H528.24c-7.46,0-17.71,1.56-18.33-9-.73-12.5,0-25.24,0-37.77,0-1.19-4.83-.38-4.83,1.3Z"/></g><g class="cls-1"><path class="cls-2" d="M552.78,49.68q0,36.73,0,73.46V233.77c0,5.81,2.84,23.59-5.57,25.08-2.27.4-5,0-7.26,0h-171c-5.59,0-10.81-1.31-11.29-8.35-.52-7.55,0-15.31,0-22.88,0-20.86.15-41.72.15-62.58V12.75c0-4.4.23-8.92,5.83-10.09,3.26-.68,7.4,0,10.71,0H501.86a26.51,26.51,0,0,0,4.18,0c.6-.09.75.31-.06-.15-1.34-.77.27.7.43.89,4.52,5.53,10.37,10.37,15.42,15.41l21,21,7.09,7.08c.59.59,2.86,2.8,2.86,2.8,0,1.26,4.86.4,4.83-1.29,0-.79-2.17-2.3-2.65-2.78L547.34,38,525.66,16.33l-9.77-9.76c-1.75-1.74-3.47-4-5.47-5.46-1.8-1.31-4-.9-6.23-.9H395.8c-10.14,0-20.4-.47-30.54,0C358.18.53,353,4.94,352.93,12.13c-.05,3.82,0,7.64,0,11.45V136.05c0,25.35.14,50.71-.08,76.06-.06,6.36-.07,12.73-.07,19.1v14.92c0,3-.47,6.64.83,9.44,3.9,8.41,19.29,5.73,26.73,5.73H539.58c2.71,0,5.6.25,8.27-.28,6.36-1.25,9.69-5.93,9.75-12.12.29-30.65,0-61.32,0-92q0-51.33,0-102.66V48.39C557.61,47.15,552.78,48,552.78,49.68Z"/></g><g class="cls-1"><path class="cls-2" d="M379.67,84.61h65.06c2.18,0,5-3.3,1.73-3.3H381.4c-2.18,0-5,3.3-1.73,3.3Z"/><path class="cls-2" d="M379.56,143h149.3c1.61,0,5.2-2.42,2-2.42H381.52c-1.61,0-5.19,2.42-2,2.42Z"/><path class="cls-2" d="M379,174.73H528.26c.93,0,5.42-1.8,3.17-1.8H382.13c-.94,0-5.42,1.8-3.18,1.8Z"/><path class="cls-2" d="M465.81,206.85h62.47c1.05,0,5.47-2,3.13-2H468.94c-1.05,0-5.47,2-3.13,2Z"/><path class="cls-2" d="M379.61,112.88H528.92c1.89,0,5.1-2.84,1.85-2.84H381.46c-1.88,0-5.1,2.84-1.85,2.84Z"/></g><g class="cls-3"><path class="cls-2" d="M128.42,73.65q5.36,9.28,10.72,18.57,3.2,5.52,6.38,11.06c1.33,2.3,2.52,4.83,4.74,6.43,6.91,5,14.31-.2,20.4-3.71l19.85-11.46c2.8-1.62-1.52-1.9-2.91-1.1L171,103.05c-6,3.48-13.55,10-19,1.77-6.82-10.4-12.52-21.7-18.74-32.46-.83-1.44-5.44.24-4.83,1.29Z"/></g><g class="cls-3"><path class="cls-2" d="M193.32,90.67q16.1,27.9,32.21,55.79L279,239c4.81,8.34,9.69,16.65,14.45,25,2.43,4.28,3.26,9.33-1.46,12.7-1.92,1.36-4.18,2.41-6.22,3.58l-81.59,47.11-44.85,25.89c-7.85,4.53-15.77,10.28-24.09,13.9-6.32,2.76-9.22-2.84-11.85-7.4L111,338.51c-3.75-6.52-7.39-13.11-11.15-19.62Q78.31,281.5,56.71,244.1L9.64,162.56c-3.66-6.34-8.51-13.65.15-18.73,10.32-6.06,20.73-12,31.09-18L126.41,76.5l5.76-3.33-3.4.51,32.5,8.7,22.15,5.92,7.39,2c1,.26,3,1.25,2.51.39.88,1.45,5.46-.25,4.83-1.3s-2.53-1-3.45-1.26l-10-2.69-29.48-7.89c-7.15-1.91-14.28-4-21.49-5.74-2.88-.68-4.63.35-7,1.74L34.53,126.71c-9.73,5.62-19.71,11-29.26,16.89C-5.47,150.28,2.82,160.41,7.2,168l56.23,97.4c12.67,21.95,25.47,43.84,38,65.91q4.69,8.31,9.48,16.57,3.73,6.47,7.46,12.93c1.35,2.32,2.62,5.34,4.62,7.21,7.92,7.44,20-2.39,27.12-6.53l99.19-57.26,39.39-22.74c2.09-1.21,4.28-2.33,6.31-3.64,5.57-3.62,6.55-9.28,3.44-14.81-15-26.72-30.66-53.11-46-79.66L201.08,94.46q-1.47-2.53-2.93-5.09C197.3,87.91,192.69,89.58,193.32,90.67Z"/></g><g class="cls-3"><path class="cls-2" d="M63,207.7l56.34-32.53c2.81-1.63-1.28-3-3.14-1.94L59.87,205.76c-2.81,1.63,1.28,3,3.14,1.94Z"/><path class="cls-2" d="M91.94,259.16l113.45-65.5,15.86-9.16c2.83-1.63.26-4.32-2.16-2.92l-113.45,65.5-15.86,9.15c-2.83,1.64-.25,4.32,2.16,2.93Z"/><path class="cls-2" d="M108.43,286.34l113.44-65.5,15.86-9.15c2.82-1.63-1.3-2.88-3.11-1.84l-113.44,65.5-15.86,9.15c-2.82,1.63,1.3,2.88,3.11,1.84Z"/><path class="cls-2" d="M199.92,269.75,254,238.52c2-1.14-2.82-.54-3.67-.05l-54.1,31.24c-2,1.14,2.81.54,3.67,0Z"/><path class="cls-2" d="M77.12,231.89q56.73-32.74,113.45-65.5l15.86-9.15c2.79-1.61-1.56-1.73-2.87-1L90.11,221.77l-15.86,9.15c-2.79,1.62,1.56,1.73,2.87,1Z"/></g><path class="cls-2" d="M877.15,130.42l-10.23,17.71c-3.09,5.36-7.27,10.87-9.51,16.68-3.45,9,5.71,13,11.87,16.56l19.08,11c1.2.7,5.68-1.13,3.89-2.16l-17.47-10.09c-6.37-3.68-16.55-7.72-12.07-17.07,5.39-11.25,12.65-21.9,18.89-32.71,1-1.77-3.75-1.15-4.45.07Z"/><path class="cls-2" d="M894.8,194.92q-18.37,31.8-36.73,63.61l-55.32,95.81q-3.54,6.14-7.09,12.27c-2.2,3.81-4.47,8-10,5.45-7.71-3.58-15-8.66-22.36-12.91l-98.82-57-33.2-19.17c-4.71-2.72-9.24-6.31-6.17-12.63,3.31-6.79,7.66-13.26,11.44-19.8,10.43-18.07,21-36.06,31.42-54.12L725.91,96q9.06-15.7,18.14-31.41c2.17-3.78,4.56-7.31,9.9-4.73,3.26,1.57,6.35,3.67,9.48,5.47q47.39,27.38,94.79,54.73l15.6,9a39.47,39.47,0,0,1,3.51,2c.62.45.29.27-.08-.37a5,5,0,0,1,.39,1.43c1.22,7.06,3.79,14.14,5.65,21q3.84,14.34,7.69,28.68,1.31,4.84,2.6,9.67c.26,1,.51,2,.8,3s0,1.2.42.37c-1.22,2.22,3.65,2,4.56.36.54-1-.38-2.86-.64-3.82l-2.69-10-7.91-29.48c-1.88-7-3.08-14.76-5.77-21.48-.86-2.17-2.53-2.68-4.6-3.87l-93.86-54.2c-8.77-5.06-17.41-10.71-26.45-15.27C745.11,50.91,739.6,64,734.78,72.4l-56.24,97.39c-12.67,22-25.23,44-38.1,65.83q-4.85,8.24-9.61,16.5l-7.46,12.93c-1.39,2.4-3.33,5-4,7.75-2.28,10.07,12.92,15.52,19.67,19.42l100.27,57.89L777,371.84c2.43,1.41,5,3.31,7.81,4,6.13,1.54,11.3-1.89,14.29-6.93,15.63-26.37,30.66-53.1,46-79.65l51.33-88.9,2.94-5.09C900.62,193.09,895.74,193.29,894.8,194.92Z"/><path class="cls-2" d="M726.59,138l56.34,32.53c1.23.71,5.26-1.27,4.54-1.68l-56.34-32.53c-1.22-.7-5.25,1.27-4.54,1.68Z"/><path class="cls-2" d="M697.18,189l113.44,65.5,15.86,9.15c1.3.75,5.44-1.21,4.52-1.74q-56.71-32.76-113.45-65.5l-15.85-9.16c-1.3-.75-5.44,1.22-4.52,1.75Z"/><path class="cls-2" d="M681.5,217,795,282.49l15.86,9.16c1.32.76,5.78-1.19,3.85-2.3l-113.45-65.5-15.85-9.15c-1.33-.77-5.78,1.18-3.86,2.29Z"/><path class="cls-2" d="M740.69,288.11l54.1,31.24c1.27.73,5.74-1.17,3.87-2.25l-54.1-31.23c-1.27-.74-5.74,1.16-3.87,2.24Z"/><path class="cls-2" d="M712.35,162.7,825.8,228.2l15.85,9.15c1.29.74,5.42-1.22,4.53-1.73q-56.71-32.76-113.45-65.5L716.88,161c-1.29-.74-5.42,1.23-4.53,1.74Z"/></g></g></svg>