<svg width="150" height="150" viewBox="0 0 150 150" fill="none" xmlns="http://www.w3.org/2000/svg">
<g clip-path="url(#clip0_12319_2344)">
<path d="M79.3561 43.0332H77.1046C76.4065 40.5691 74.1631 38.7627 71.492 38.7627C68.8209 38.7627 66.5774 40.5691 65.8794 43.0332H63.6279C60.6017 43.0332 58.1484 45.5053 58.1484 48.554V52.5119H84.8355V48.554C84.8355 45.5053 82.3823 43.0332 79.3561 43.0332Z" stroke="#0A2C51" stroke-width="2.4" stroke-linecap="round" stroke-linejoin="round"/>
<path d="M59.0117 45.5786H43.7637V109.616H74.3606" stroke="#0A2C51" stroke-width="2.4" stroke-linecap="round" stroke-linejoin="round"/>
<path d="M83.9639 45.5786H99.2119L99.2321 73.7833" stroke="#0A2C51" stroke-width="2.4" stroke-linecap="round" stroke-linejoin="round"/>
<path d="M59.4395 91.6895V100.141" stroke="#0A2C51" stroke-width="2.4" stroke-linecap="round" stroke-linejoin="round"/>
<path d="M65.6006 86.9238V100.141" stroke="#0A2C51" stroke-width="2.4" stroke-linecap="round" stroke-linejoin="round"/>
<path d="M71.7622 89.1074V100.141" stroke="#0A2C51" stroke-width="2.4" stroke-linecap="round" stroke-linejoin="round"/>
<path d="M103.916 77.668H80.5338C79.2547 77.668 78.2178 78.7112 78.2178 79.9981V109.908C78.2178 111.195 79.2547 112.238 80.5338 112.238H103.916C105.195 112.238 106.232 111.195 106.232 109.908V79.9981C106.232 78.7112 105.195 77.668 103.916 77.668Z" stroke="#0A2C51" stroke-width="2.4" stroke-linecap="round" stroke-linejoin="round"/>
<path d="M99.7521 83.834H84.7017C83.973 83.834 83.3823 84.4283 83.3823 85.1614V89.3142C83.3823 90.0473 83.973 90.6416 84.7017 90.6416H99.7521C100.481 90.6416 101.072 90.0473 101.072 89.3142V85.1614C101.072 84.4283 100.481 83.834 99.7521 83.834Z" stroke="#0A2C51" stroke-width="2.4" stroke-linecap="round" stroke-linejoin="round"/>
<ellipse cx="84.6778" cy="97.7051" rx="1.21048" ry="1.21782" fill="#0A2C51" stroke="#0A2C51" stroke-width="2.4" stroke-linecap="round" stroke-linejoin="round"/>
<ellipse cx="92.2271" cy="97.7051" rx="1.21048" ry="1.21782" fill="#0A2C51" stroke="#0A2C51" stroke-width="2.4" stroke-linecap="round" stroke-linejoin="round"/>
<ellipse cx="99.7764" cy="97.7051" rx="1.21048" ry="1.21782" fill="#0A2C51" stroke="#0A2C51" stroke-width="2.4" stroke-linecap="round" stroke-linejoin="round"/>
<ellipse cx="84.6778" cy="103.928" rx="1.21048" ry="1.21782" fill="#0A2C51" stroke="#0A2C51" stroke-width="2.4" stroke-linecap="round" stroke-linejoin="round"/>
<ellipse cx="92.2271" cy="103.928" rx="1.21048" ry="1.21782" fill="#0A2C51" stroke="#0A2C51" stroke-width="2.4" stroke-linecap="round" stroke-linejoin="round"/>
<ellipse cx="99.7764" cy="103.928" rx="1.21048" ry="1.21782" fill="#0A2C51" stroke="#0A2C51" stroke-width="2.4" stroke-linecap="round" stroke-linejoin="round"/>
<path d="M70.4829 64.7217H89.1647" stroke="#0A2C51" stroke-width="2.4" stroke-linecap="round" stroke-linejoin="round"/>
<path d="M70.4829 71.1035H81.5185" stroke="#0A2C51" stroke-width="2.4" stroke-linecap="round" stroke-linejoin="round"/>
<path d="M63.2524 65.4973C62.5503 64.9371 60.6499 64.2997 58.9956 64.5068C56.9539 64.7625 55.9048 66.3294 55.925 67.669C55.9492 69.1872 56.9942 70.2914 59.5161 71.3387C62.6028 72.6215 63.9061 74.0585 63.5187 76.1288C63.2766 77.4116 62.1711 78.7309 59.738 78.8445C57.89 78.9298 55.9895 78.053 55.001 77.237" stroke="#0A2C51" stroke-width="2.4" stroke-linecap="round" stroke-linejoin="round"/>
<path d="M59.4395 82.2626V78.8486" stroke="#0A2C51" stroke-width="2.4" stroke-linecap="round" stroke-linejoin="round"/>
<path d="M59.4395 64.4664V61.1377" stroke="#0A2C51" stroke-width="2.4" stroke-linecap="round" stroke-linejoin="round"/>
</g>
<defs>
<clipPath id="clip0_12319_2344">
<rect width="66" height="77" fill="white" transform="translate(42 37)"/>
</clipPath>
</defs>
</svg>
