<svg width="150" height="150" viewBox="0 0 150 150" fill="none" xmlns="http://www.w3.org/2000/svg">
<g clip-path="url(#clip0_12319_2342)">
<path d="M49.406 67.9865C49.406 71.4981 51.9899 74.3461 55.1762 74.3461C58.3624 74.3461 60.9463 71.4981 60.9463 67.9865C60.9463 64.4749 58.3624 61.627 55.1762 61.627C51.9899 61.627 49.406 64.4749 49.406 67.9865Z" stroke="#0A2C51" stroke-width="2.4" stroke-linecap="round" stroke-linejoin="round"/>
<path d="M47.0267 103.019H46.06C43.5653 103.019 41.5391 100.956 41.5391 98.4077V85.8745C41.5391 82.0102 44.61 78.874 48.4023 78.874H57.0389" stroke="#0A2C51" stroke-width="2.4" stroke-linecap="round" stroke-linejoin="round"/>
<path d="M47.3835 86.7881V105.434" stroke="#0A2C51" stroke-width="2.4" stroke-linecap="round" stroke-linejoin="round"/>
<path d="M100.594 67.9865C100.594 71.4981 98.0101 74.3461 94.8239 74.3461C91.6376 74.3461 89.0537 71.4981 89.0537 67.9865C89.0537 64.4749 91.6376 61.627 94.8239 61.627C98.0101 61.627 100.594 64.4749 100.594 67.9865Z" stroke="#0A2C51" stroke-width="2.4" stroke-linecap="round" stroke-linejoin="round"/>
<path d="M102.973 103.019H103.94C106.435 103.019 108.461 100.956 108.461 98.4077V85.8745C108.461 82.0102 105.39 78.874 101.598 78.874H92.9612" stroke="#0A2C51" stroke-width="2.4" stroke-linecap="round" stroke-linejoin="round"/>
<path d="M102.616 86.7881V105.434" stroke="#0A2C51" stroke-width="2.4" stroke-linecap="round" stroke-linejoin="round"/>
<path d="M68.4231 63.3749C68.4231 67.3794 71.3677 70.6218 75 70.6218C78.6324 70.6218 81.577 67.3756 81.577 63.3749C81.577 59.3741 78.6324 56.1279 75 56.1279C71.3677 56.1279 68.4231 59.3741 68.4231 63.3749Z" stroke="#0A2C51" stroke-width="2.4" stroke-linecap="round" stroke-linejoin="round"/>
<path d="M65.7091 102.643H64.6086C61.7644 102.643 59.4556 100.289 59.4556 97.3875V82.8861C59.4556 78.4795 62.9578 74.9072 67.278 74.9072H82.7184C87.0386 74.9072 90.5408 78.4795 90.5408 82.8861V97.3875C90.5408 100.289 88.232 102.643 85.3878 102.643H83.9527" stroke="#0A2C51" stroke-width="2.4" stroke-linecap="round" stroke-linejoin="round"/>
<path d="M66.1179 83.8184V105.434" stroke="#0A2C51" stroke-width="2.4" stroke-linecap="round" stroke-linejoin="round"/>
<path d="M83.8821 83.8184V105.434" stroke="#0A2C51" stroke-width="2.4" stroke-linecap="round" stroke-linejoin="round"/>
<path d="M62.4523 58.2855C65.6391 58.2855 68.2224 55.4382 68.2224 51.926C68.2224 48.4137 65.6391 45.5664 62.4523 45.5664C59.2655 45.5664 56.6821 48.4137 56.6821 51.926C56.6821 55.4382 59.2655 58.2855 62.4523 58.2855Z" stroke="#0A2C51" stroke-width="2.4" stroke-linecap="round" stroke-linejoin="round"/>
<path d="M81.7778 51.926C81.7778 55.4375 84.3618 58.2855 87.548 58.2855C90.7342 58.2855 93.3181 55.4375 93.3181 51.926C93.3181 48.4144 90.7342 45.5664 87.548 45.5664C84.3618 45.5664 81.7778 48.4144 81.7778 51.926Z" stroke="#0A2C51" stroke-width="2.4" stroke-linecap="round" stroke-linejoin="round"/>
</g>
<defs>
<clipPath id="clip0_12319_2342">
<rect width="70" height="63" fill="white" transform="translate(40 44)"/>
</clipPath>
</defs>
</svg>
