<svg width="150" height="150" viewBox="0 0 150 150" fill="none" xmlns="http://www.w3.org/2000/svg">
<g clip-path="url(#clip0_12319_2338)">
<path d="M89.4316 83.5428V76.8554C89.4316 74.9891 90.9194 73.4706 92.7569 73.4668C94.6055 73.4593 96.1079 74.9816 96.1079 76.8554V78.7031" stroke="#0A2C51" stroke-width="2.4" stroke-linecap="round" stroke-linejoin="round"/>
<path d="M96.1079 83.5445V79.0077C96.1079 77.1376 97.5993 75.6191 99.4405 75.6191C101.285 75.6191 102.784 77.1339 102.784 79.0077V83.5445" stroke="#0A2C51" stroke-width="2.4" stroke-linecap="round" stroke-linejoin="round"/>
<path d="M102.784 81.2584C102.784 79.7661 103.974 78.558 105.443 78.558H105.472C107.682 78.5804 109.464 80.4056 109.468 82.6497C109.468 82.6497 109.435 91.9104 109.416 97.1092C109.409 99.6749 108.761 102.196 107.516 104.429C107.505 104.447 107.494 104.47 107.483 104.489C106.11 106.938 103.547 108.449 100.77 108.449C98.6268 108.449 94.4288 108.449 90.7132 108.449C87.3032 108.449 84.1179 106.733 82.1883 103.875C80.7852 101.796 79.7026 99.6862 78.7083 97.9919C76.4731 94.1881 74.7939 91.2035 71.2698 88.4956C70.165 87.6466 69.5758 86.2852 69.8852 84.9163C70.3234 82.9826 72.102 82.0139 74.0316 82.3206C78.8078 83.0836 82.4497 88.8733 82.4497 88.8733V67.6479C82.4497 65.6769 84.0405 64.0723 85.9922 64.106C87.9182 64.1359 89.4317 65.819 89.4317 67.7788V76.8562" stroke="#0A2C51" stroke-width="2.4" stroke-linecap="round" stroke-linejoin="round"/>
<path d="M42.5317 99.0456L80.9987 59.8711L82.9504 61.8571" stroke="#0A2C51" stroke-width="2.4" stroke-linecap="round" stroke-linejoin="round"/>
<path d="M48.9468 76.7949L73.2768 52.0163L66.4606 45.0858L88.4007 44.5547L88.003 61.464" stroke="#0A2C51" stroke-width="2.4" stroke-linecap="round" stroke-linejoin="round"/>
<path d="M42.5317 83.3256L45.5256 80.2773" stroke="#0A2C51" stroke-width="2.4" stroke-linecap="round" stroke-linejoin="round"/>
</g>
<defs>
<clipPath id="clip0_12319_2338">
<rect width="70" height="67" fill="white" transform="translate(41 43)"/>
</clipPath>
</defs>
</svg>
