<svg width="150" height="150" viewBox="0 0 150 150" fill="none" xmlns="http://www.w3.org/2000/svg">
<g clip-path="url(#clip0_12319_2336)">
<path d="M95.5971 44.1602L92.4077 48.5452" stroke="#0A2C51" stroke-width="2.4" stroke-linecap="round" stroke-linejoin="round"/>
<path d="M108.328 61.6738L103.17 63.3478" stroke="#0A2C51" stroke-width="2.4" stroke-linecap="round" stroke-linejoin="round"/>
<path d="M108.328 83.3204L103.17 81.6465" stroke="#0A2C51" stroke-width="2.4" stroke-linecap="round" stroke-linejoin="round"/>
<path d="M95.5971 100.834L92.4077 96.4492" stroke="#0A2C51" stroke-width="2.4" stroke-linecap="round" stroke-linejoin="round"/>
<path d="M54.4023 100.834L57.5879 96.4492" stroke="#0A2C51" stroke-width="2.4" stroke-linecap="round" stroke-linejoin="round"/>
<path d="M41.6719 83.3204L46.8298 81.6465" stroke="#0A2C51" stroke-width="2.4" stroke-linecap="round" stroke-linejoin="round"/>
<path d="M41.6719 61.6738L46.8298 63.3478" stroke="#0A2C51" stroke-width="2.4" stroke-linecap="round" stroke-linejoin="round"/>
<path d="M54.4023 44.1602L57.5879 48.5452" stroke="#0A2C51" stroke-width="2.4" stroke-linecap="round" stroke-linejoin="round"/>
<path d="M74.8892 37.6699V42.8024" stroke="#0A2C51" stroke-width="2.4" stroke-linecap="round" stroke-linejoin="round"/>
<path d="M74.9996 47.8281C62.9289 47.8281 50.9116 57.8604 51.976 71.6182C52.3728 76.7773 54.6122 81.8335 57.6413 85.517C64.5388 93.9058 63.7377 93.1051 63.9513 97.2308H86.0479C86.2653 93.1051 85.4642 93.9058 92.3579 85.517C95.387 81.8335 97.6264 76.7773 98.0232 71.6182C99.0837 57.8604 87.0703 47.8281 74.9996 47.8281Z" stroke="#0A2C51" stroke-width="2.4" stroke-linecap="round" stroke-linejoin="round"/>
<path d="M63.9512 97.2305V101.276C63.9512 107.381 68.9031 112.33 75.0109 112.33C81.1607 112.33 86.1278 107.316 86.0706 101.173L86.0477 97.2305" stroke="#0A2C51" stroke-width="2.4" stroke-linecap="round" stroke-linejoin="round"/>
<path d="M82.164 97.2308V73.3416L74.9995 59.8203L67.8311 73.3416V97.2308" stroke="#0A2C51" stroke-width="2.4" stroke-linecap="round" stroke-linejoin="round"/>
<path d="M82.164 73.3418H67.8311" stroke="#0A2C51" stroke-width="2.4" stroke-linecap="round" stroke-linejoin="round"/>
<path d="M74.9995 97.231V73.3418" stroke="#0A2C51" stroke-width="2.4" stroke-linecap="round" stroke-linejoin="round"/>
<path d="M72.2603 64.9902H77.7386" stroke="#0A2C51" stroke-width="2.4" stroke-linecap="round" stroke-linejoin="round"/>
<path d="M85.7886 103.756H64.23" stroke="#0A2C51" stroke-width="2.4" stroke-linecap="round" stroke-linejoin="round"/>
</g>
<defs>
<clipPath id="clip0_12319_2336">
<rect width="70" height="78" fill="white" transform="translate(40 36)"/>
</clipPath>
</defs>
</svg>
