<svg width="150" height="150" viewBox="0 0 150 150" fill="none" xmlns="http://www.w3.org/2000/svg">
<g clip-path="url(#clip0_12319_2337)">
<path d="M35.8071 92.6564L52.1752 71.9355L57.8703 78.6857" stroke="#0A2C51" stroke-width="2.4" stroke-linecap="round" stroke-linejoin="round"/>
<path d="M41.1216 108.917L75.9435 57.6309L94.8535 87.1014L100.465 86.0643L114.193 106.28" stroke="#0A2C51" stroke-width="2.4" stroke-linecap="round" stroke-linejoin="round"/>
<path d="M77.4359 67.6055L69.8054 80.5082C67.9144 82.9604 68.8622 86.5289 71.7319 87.7418L88.5516 93.9075C91.5365 95.1688 92.0591 99.1591 89.4993 101.141L88.4409 101.967C85.952 103.888 86.5499 107.786 89.4993 108.893L95.6861 111.209" stroke="#0A2C51" stroke-width="2.4" stroke-linecap="round" stroke-linejoin="round"/>
<path d="M75.9434 38.7949V57.6304" stroke="#0A2C51" stroke-width="2.4" stroke-linecap="round" stroke-linejoin="round"/>
<path d="M75.9434 50.5999H91.7135L89.6454 45.6823L91.7135 40.5625H75.9434" stroke="#0A2C51" stroke-width="2.4" stroke-linecap="round" stroke-linejoin="round"/>
</g>
<defs>
<clipPath id="clip0_12319_2337">
<rect width="82" height="76" fill="white" transform="translate(34 37)"/>
</clipPath>
</defs>
</svg>
