<svg width="79" height="90" viewBox="0 0 79 90" fill="none" xmlns="http://www.w3.org/2000/svg">
<path d="M68.1231 63.2734L60.5019 72.022C60.3991 72.1387 60.214 72.1387 60.1142 72.022L55.6442 66.8073" stroke="#E92B5A" stroke-width="2.5" stroke-miterlimit="10" stroke-linecap="round"/>
<path d="M77.0426 67.1323C77.0426 75.2476 70.4228 82.0498 62.2552 82.0498C54.0876 82.0498 47.4678 75.2447 47.4678 67.1323C47.4678 59.0199 54.0876 52.4395 62.2552 52.4395C70.4228 52.4395 77.0426 59.0169 77.0426 67.1323Z" stroke="#E92B5A" stroke-width="2.5" stroke-miterlimit="10" stroke-linecap="round"/>
<path d="M27.0269 16.4609H52.349" stroke="black" stroke-width="2.5" stroke-miterlimit="10" stroke-linecap="round"/>
<path d="M46.3841 79.9042H7.33492C4.3657 79.9042 1.95743 77.2866 1.95743 74.3335V21.804C1.95743 18.8538 4.3657 16.4609 7.33492 16.4609H13.0854" stroke="black" stroke-width="2.5" stroke-miterlimit="10" stroke-linecap="round"/>
<path d="M66.4227 16.4609H66.9131C69.8824 16.4609 72.2906 18.8538 72.2906 21.804V49.4913" stroke="black" stroke-width="2.5" stroke-miterlimit="10" stroke-linecap="round"/>
<path d="M7.77545 32.7637H66.4726" stroke="black" stroke-width="2.5" stroke-miterlimit="10" stroke-linecap="round"/>
<path d="M33.171 56.1074H40.9714" stroke="black" stroke-width="2.5" stroke-miterlimit="10" stroke-linecap="round"/>
<path d="M33.171 68.1094H40.9714" stroke="black" stroke-width="2.5" stroke-miterlimit="10" stroke-linecap="round"/>
<path d="M13.8813 68.1094H21.6817" stroke="black" stroke-width="2.5" stroke-miterlimit="10" stroke-linecap="round"/>
<path d="M52.4606 44.0977H60.261" stroke="black" stroke-width="2.5" stroke-miterlimit="10" stroke-linecap="round"/>
<path d="M33.171 44.0977H40.9714" stroke="black" stroke-width="2.5" stroke-miterlimit="10" stroke-linecap="round"/>
<path d="M13.8813 44.0977H21.6817" stroke="black" stroke-width="2.5" stroke-miterlimit="10" stroke-linecap="round"/>
<path d="M13.8813 56.1074H21.6817" stroke="black" stroke-width="2.5" stroke-miterlimit="10" stroke-linecap="round"/>
<path d="M17.5025 24.9707C15.3556 24.9707 13.617 23.2432 13.617 21.11V11.8158C13.617 9.68262 15.3556 7.95508 17.5025 7.95508C19.6494 7.95508 21.388 9.68262 21.388 11.8158V21.11C21.388 23.2432 19.6494 24.9707 17.5025 24.9707Z" stroke="black" stroke-width="2.5" stroke-miterlimit="10" stroke-linecap="round"/>
<path d="M56.7456 24.9707C54.5987 24.9707 52.86 23.2432 52.86 21.11V11.8158C52.86 9.68262 54.5987 7.95508 56.7456 7.95508C58.8924 7.95508 60.6311 9.68262 60.6311 11.8158V21.11C60.6311 23.2432 58.8895 24.9707 56.7456 24.9707Z" stroke="black" stroke-width="2.5" stroke-miterlimit="10" stroke-linecap="round"/>
</svg>
