<svg width="94" height="90" viewBox="0 0 94 90" fill="none" xmlns="http://www.w3.org/2000/svg">
<g clip-path="url(#clip0_12077_3893)">
<path d="M28.4439 7.6527C35.8754 0.222539 47.9287 0.222539 55.3602 7.6527C62.7917 15.0829 62.7917 27.1226 55.3602 34.5528C49.0059 40.9065 39.271 41.8185 31.9388 37.3085L23.7427 39.252L25.6887 31.0644C21.1713 23.7339 22.0896 14.0065 28.4439 7.6527Z" stroke="#E92B5A" stroke-width="2.4" stroke-linecap="round" stroke-linejoin="round"/>
<path d="M62.4939 10.5371C63.3478 11.1102 64.1569 11.773 64.9115 12.5255C70.3275 17.9423 71.1069 26.2247 67.2646 32.4738L68.9226 39.4455L61.9379 37.791C59.838 39.0867 57.4949 39.8591 55.1219 40.0983" stroke="#E92B5A" stroke-width="2.4" stroke-linecap="round" stroke-linejoin="round"/>
<path d="M18.4999 58.6973C22.5275 58.6973 25.7924 55.1208 25.7924 50.709C25.7924 46.2972 22.5275 42.7207 18.4999 42.7207C14.4724 42.7207 11.2074 46.2972 11.2074 50.709C11.2074 55.1208 14.4724 58.6973 18.4999 58.6973Z" stroke="black" stroke-width="2.4" stroke-linecap="round" stroke-linejoin="round"/>
<path d="M2.07312 84.8344V72.2266C2.07312 67.2283 6.11404 63.1719 11.0982 63.1719H25.8818C28.5327 63.1719 31.0496 64.343 32.7623 66.3662L38.9378 73.6718L45.7538 69.715C47.1239 68.9177 48.8713 69.3064 49.7798 70.607L49.8146 70.6569C50.7876 72.0472 50.4401 73.9658 49.0451 74.9326L40.993 80.5039C38.9378 81.9242 36.1777 81.7199 34.3508 80.0156L27.8824 73.9658V84.8295" stroke="black" stroke-width="2.4" stroke-linecap="round" stroke-linejoin="round"/>
<path d="M9.11243 84.8394V73.9707" stroke="black" stroke-width="2.4" stroke-linecap="round" stroke-linejoin="round"/>
<path d="M75.5003 58.6973C79.5278 58.6973 82.7928 55.1208 82.7928 50.709C82.7928 46.2972 79.5278 42.7207 75.5003 42.7207C71.4727 42.7207 68.2078 46.2972 68.2078 50.709C68.2078 55.1208 71.4727 58.6973 75.5003 58.6973Z" stroke="black" stroke-width="2.4" stroke-linecap="round" stroke-linejoin="round"/>
<path d="M66.1128 84.8394V73.9758L61.2528 81.6202C60.7018 82.4823 59.9174 83.17 58.9891 83.5986L50.2073 87.6401C48.7826 88.2979 47.0897 87.7597 46.3004 86.3992C45.4863 85.0039 45.8983 83.2149 47.2337 82.3129L54.9879 77.0854L61.2826 67.313C62.9456 64.7317 65.8001 63.1719 68.8631 63.1719H82.9119C87.8961 63.1719 91.937 67.2233 91.937 72.2266V84.8344" stroke="black" stroke-width="2.4" stroke-linecap="round" stroke-linejoin="round"/>
<path d="M84.8877 84.8394V73.9707" stroke="black" stroke-width="2.4" stroke-linecap="round" stroke-linejoin="round"/>
</g>
<defs>
<clipPath id="clip0_12077_3893">
<rect width="94" height="90" fill="white"/>
</clipPath>
</defs>
</svg>
