<svg width="80" height="90" viewBox="0 0 80 90" fill="none" xmlns="http://www.w3.org/2000/svg">
<path d="M23.1111 10.7746C28.2017 8.25535 33.9382 6.8418 40 6.8418C48.7719 6.8418 56.8586 9.79898 63.3019 14.7811" stroke="black" stroke-width="2.3" stroke-linecap="round" stroke-linejoin="round"/>
<path d="M15.8656 74.5547C22.4434 79.9314 30.8423 83.1574 40 83.1574C45.316 83.1574 50.3805 82.0734 54.9767 80.1048" stroke="black" stroke-width="2.3" stroke-linecap="round" stroke-linejoin="round"/>
<path d="M9.41357 67.8151C4.65693 61.4542 1.84283 53.5582 1.84283 44.9989C1.84283 33.3046 7.09812 22.8417 15.3843 15.8477" stroke="black" stroke-width="2.3" stroke-linecap="round" stroke-linejoin="round"/>
<path d="M69.9274 21.3242C75.083 27.8283 78.1572 36.0538 78.1572 44.999C78.1572 57.4305 72.2125 68.4657 63.0157 75.4294" stroke="black" stroke-width="2.3" stroke-linecap="round" stroke-linejoin="round"/>
<path d="M62.4724 81.3713C64.2944 79.5493 64.2944 76.5952 62.4724 74.7732C60.6504 72.9512 57.6963 72.9512 55.8743 74.7732C54.0522 76.5952 54.0522 79.5493 55.8743 81.3713C57.6963 83.1934 60.6504 83.1934 62.4724 81.3713Z" stroke="#E92B5A" stroke-width="2.3" stroke-linecap="round" stroke-linejoin="round"/>
<path d="M23.0715 14.8624C24.2237 12.5576 23.2893 9.75515 20.9845 8.60301C18.6797 7.45086 15.8773 8.38527 14.7251 10.6901C13.573 12.9949 14.5074 15.7973 16.8122 16.9494C19.117 18.1016 21.9194 17.1672 23.0715 14.8624Z" stroke="#E92B5A" stroke-width="2.3" stroke-linecap="round" stroke-linejoin="round"/>
<path d="M9.09271 49.6352C4.47482 45.3425 2.17672 40.6639 3.161 36.3799C4.73499 29.5203 14.3046 25.4921 26.9442 25.375" stroke="black" stroke-width="2.3" stroke-linecap="round" stroke-linejoin="round"/>
<path d="M71.3843 40.6934C75.755 44.8993 77.9057 49.4435 76.9474 53.6148C75.3648 60.4961 65.7561 64.5243 53.0602 64.6196" stroke="black" stroke-width="2.3" stroke-linecap="round" stroke-linejoin="round"/>
<path d="M69.91 21.3418C71.6618 24.802 71.6098 29.4632 70.0054 34.6448C69.3464 36.7781 68.4228 38.9982 67.2564 41.2616C66.1897 43.3342 64.9149 45.4415 63.4407 47.5488" stroke="black" stroke-width="2.3" stroke-linecap="round" stroke-linejoin="round"/>
<path d="M40.1431 21.4198C48.542 16.5981 56.7025 14.5645 62.5778 15.8957" stroke="black" stroke-width="2.3" stroke-linecap="round" stroke-linejoin="round"/>
<path d="M10.1854 67.2573C8.71978 62.9949 9.53496 57.306 12.2537 51.1749C12.297 51.0751 12.3404 50.9754 12.3837 50.88C13.4677 48.4909 14.8336 46.041 16.464 43.5781" stroke="black" stroke-width="2.3" stroke-linecap="round" stroke-linejoin="round"/>
<path d="M16.5551 73.6522C22.4954 75.7812 31.3713 73.8343 40.5334 68.5703" stroke="black" stroke-width="2.3" stroke-linecap="round" stroke-linejoin="round"/>
<path d="M67.8767 22.4064C70.3845 21.8145 71.9377 19.3017 71.3458 16.7938C70.7539 14.286 68.241 12.7329 65.7332 13.3248C63.2254 13.9167 61.6722 16.4295 62.2641 18.9373C62.856 21.4451 65.3688 22.9983 67.8767 22.4064Z" stroke="#E92B5A" stroke-width="2.3" stroke-linecap="round" stroke-linejoin="round"/>
<path d="M15.0065 75.244C17.1915 73.8782 17.8555 70.9997 16.4897 68.8147C15.1238 66.6298 12.2453 65.9658 10.0604 67.3316C7.87544 68.6975 7.21142 71.5759 8.57726 73.7609C9.9431 75.9458 12.8216 76.6099 15.0065 75.244Z" stroke="#E92B5A" stroke-width="2.3" stroke-linecap="round" stroke-linejoin="round"/>
<path d="M59.854 48.2226C61.6336 37.2594 54.1888 26.9292 43.2255 25.1496C32.2622 23.37 21.9321 30.8149 20.1525 41.7782C18.3729 52.7414 25.8178 63.0715 36.781 64.8511C47.7443 66.6307 58.0744 59.1859 59.854 48.2226Z" stroke="black" stroke-width="2.3" stroke-linecap="round" stroke-linejoin="round"/>
<path d="M40 65.1098C44.5667 65.1098 48.2688 56.106 48.2688 44.9992C48.2688 33.8925 44.5667 24.8887 40 24.8887C35.4332 24.8887 31.7311 33.8925 31.7311 44.9992C31.7311 56.106 35.4332 65.1098 40 65.1098Z" stroke="black" stroke-width="2.3" stroke-linecap="round" stroke-linejoin="round"/>
<path d="M20.1409 45H59.8591" stroke="black" stroke-width="2.3" stroke-linecap="round" stroke-linejoin="round"/>
</svg>
