<svg width="92" height="90" viewBox="0 0 92 90" fill="none" xmlns="http://www.w3.org/2000/svg">
<path d="M57.7889 14.6445C51.2769 14.8268 49.3243 16.797 48.348 18.7672C47.8599 19.7523 48.68 22.1658 46.7811 22.6929C44.5502 23.3135 41.0258 24.8059 41.0258 27.1406C41.0258 27.1406 40.5376 30.096 44.4428 29.6034C44.4428 29.6034 46.6444 26.3033 49.7539 28.3375C50.5691 28.8744 52.263 30.3521 54.1863 30.2191C55.8216 30.1058 59.1508 30.0418 60.7276 30.5836C64.8817 32.0071 65.5261 37.7847 63.0072 36.8735C60.2834 35.8884 58.5699 33.4453 53.4492 37.5779C51.4771 39.1688 49.2414 38.7748 49.2414 38.7748C47.1472 38.7748 47.3864 36.179 47.1814 35.1545C46.9422 33.9625 45.4972 33.6029 44.311 33.8443C39.5125 34.8146 31.8729 38.3561 31.3799 48.3205C30.9845 56.2752 37.0522 55.8073 40.0543 55.1079C43.9059 54.2114 48.3236 57.4721 49.3927 61.5997C50.1835 64.6536 49.505 70.5987 50.6424 73.9924C51.9848 78.0018 55.4458 80.5729 58.1745 77.3615C60.5372 74.5786 63.4905 72.5936 64.4815 70.5987C65.2674 69.0078 66.1363 63.368 66.1363 63.368C66.3316 61.915 67.0491 60.989 68.1426 60.0285C69.8121 58.5656 72.3309 58.5508 73.8735 56.1915C75.1183 54.2853 75.1183 51.1034 72.9997 51.3398C64.872 51.9013 63.6907 44.7396 64.2716 42.996C64.7207 41.6464 66.4048 41.5873 67.0833 42.8334C69.2068 46.7295 72.9265 47.2172 74.7229 47.1285C75.7382 47.0792 78.6623 47.1285 79.0577 45.1386C79.4531 43.1487 77.7934 41.4937 77.8763 40.3657C77.9984 38.7058 81.5668 39.8436 82.6065 41.1637C84.2126 43.2028 83.3925 46.7344 85.4476 49.8375C86.3751 51.2413 89.3089 53.0983 89.3089 53.0983" stroke="black" stroke-width="2.5" stroke-linecap="round" stroke-linejoin="round"/>
<path d="M41.9679 16.7918C45.8926 15.2748 50.1542 14.4473 54.6061 14.4473C74.1956 14.4473 90.0752 30.4799 90.0752 50.256C90.0752 70.032 74.1956 86.0598 54.6061 86.0598C35.0166 86.0598 20.4696 71.3324 19.2249 52.699" stroke="black" stroke-width="2.5" stroke-linecap="round" stroke-linejoin="round"/>
<path d="M18.8489 3.94124C9.66192 4.07916 2.11997 11.6793 1.9296 20.9984C1.80268 27.1898 4.85363 32.6572 9.53989 35.8538C12.9569 38.1836 15.6613 41.4394 17.1502 45.3306L18.2339 48.1578C18.5414 48.9607 19.6593 48.9607 19.9668 48.1578L21.0066 45.4439C22.5003 41.5379 25.1607 38.2132 28.5973 35.8932C33.225 32.7705 36.2808 27.4361 36.2808 21.3678C36.2808 11.6596 28.4509 3.80333 18.8489 3.94124ZM19.1028 28.4064C15.2757 28.4064 12.171 25.259 12.171 21.3727C12.171 17.4865 15.2757 14.3391 19.1028 14.3391C22.9299 14.3391 26.0345 17.4865 26.0345 21.3727C26.0345 25.259 22.9299 28.4064 19.1028 28.4064Z" stroke="#E92B5A" stroke-width="2.5" stroke-linecap="round" stroke-linejoin="round"/>
</svg>
