<svg width="22" height="31" viewBox="0 0 22 31" fill="none" xmlns="http://www.w3.org/2000/svg">
<g clip-path="url(#clip0_12077_3569)">
<path d="M11 0C4.93457 0 0 4.71243 0 10.5047V20.4953C0 26.2877 4.93457 31 11 31C17.0655 31 22 26.2877 22 20.4953V10.5047C22 4.71243 17.0654 0 11 0ZM19.8001 20.8494V20.4953C19.8001 25.129 15.852 28.8991 11 28.8991C6.148 28.8991 2.20004 25.129 2.20004 20.4953V10.5047C2.20004 5.87002 6.14786 2.10093 11 2.10093C15.8522 2.10093 19.8001 5.87002 19.8001 10.5047V20.8494Z" fill="white"/>
<path d="M11 15C10.021 15 9.22729 14.3632 9.22729 13.5776V10.4224C9.22729 9.6368 10.021 9 11 9C11.979 9 12.7727 9.6368 12.7727 10.4224V13.5776C12.7727 14.3632 11.979 15 11 15Z" fill="white"/>
</g>
<defs>
<clipPath id="clip0_12077_3569">
<rect width="22" height="31" fill="white"/>
</clipPath>
</defs>
</svg>
