<svg width="26" height="26" viewBox="0 0 26 26" fill="none" xmlns="http://www.w3.org/2000/svg">
<g clip-path="url(#clip0_12077_8739)">
<path d="M17.0718 10.524C17.0718 6.90797 14.14 3.97632 10.5239 3.9762C6.90778 3.9762 3.97607 6.9079 3.97607 10.524C3.9762 14.1401 6.90785 17.0719 10.5239 17.0719C14.1399 17.0718 17.0717 14.14 17.0718 10.524ZM20.0718 10.524C20.0717 15.7969 15.7967 20.0718 10.5239 20.0719C5.251 20.0719 0.9762 15.7969 0.976074 10.524C0.976074 5.25104 5.25092 0.976196 10.5239 0.976196C15.7968 0.976322 20.0718 5.25112 20.0718 10.524Z" fill="black"/>
<path d="M25.1851 22.9136L23.0638 25.0349L15.1848 17.1559L17.3062 15.0346L25.1851 22.9136Z" fill="black"/>
</g>
<defs>
<clipPath id="clip0_12077_8739">
<rect width="26" height="26" fill="white"/>
</clipPath>
</defs>
</svg>
