<svg width="150" height="150" viewBox="0 0 150 150" fill="none" xmlns="http://www.w3.org/2000/svg">
<g clip-path="url(#clip0_12319_2340)">
<path d="M108.361 46.6562H41.6387V84.2279H108.361V46.6562Z" stroke="#0A2C51" stroke-width="2" stroke-linecap="round" stroke-linejoin="round"/>
<path d="M56.0024 84.2773V89.5112" stroke="#0A2C51" stroke-width="2" stroke-linecap="round" stroke-linejoin="round"/>
<path d="M45.6235 89.5117H66.3816" stroke="#0A2C51" stroke-width="2" stroke-linecap="round" stroke-linejoin="round"/>
<path d="M93.9971 84.2773V89.5112" stroke="#0A2C51" stroke-width="2" stroke-linecap="round" stroke-linejoin="round"/>
<path d="M83.6182 89.5117H104.376" stroke="#0A2C51" stroke-width="2" stroke-linecap="round" stroke-linejoin="round"/>
<path d="M71.8711 84.2285V103.343" stroke="#0A2C51" stroke-width="2" stroke-linecap="round" stroke-linejoin="round"/>
<path d="M78.1284 84.2285V103.343" stroke="#0A2C51" stroke-width="2" stroke-linecap="round" stroke-linejoin="round"/>
<path d="M94.8018 46.6562V52.5593" stroke="#0A2C51" stroke-width="2" stroke-linecap="round" stroke-linejoin="round"/>
<path d="M90.5391 52.5586H99.0647" stroke="#0A2C51" stroke-width="2" stroke-linecap="round" stroke-linejoin="round"/>
<path d="M55.1982 46.6562V52.5593" stroke="#0A2C51" stroke-width="2" stroke-linecap="round" stroke-linejoin="round"/>
<path d="M50.9355 52.5586H59.4612" stroke="#0A2C51" stroke-width="2" stroke-linecap="round" stroke-linejoin="round"/>
<path d="M74.9995 46.6562V54.4285" stroke="#0A2C51" stroke-width="2" stroke-linecap="round" stroke-linejoin="round"/>
<path d="M70.7368 54.4277H79.2625" stroke="#0A2C51" stroke-width="2" stroke-linecap="round" stroke-linejoin="round"/>
<path d="M82.9956 62.291H101.863" stroke="#0A2C51" stroke-width="2" stroke-linecap="round" stroke-linejoin="round"/>
<path d="M82.9956 68.8398H101.863" stroke="#0A2C51" stroke-width="2" stroke-linecap="round" stroke-linejoin="round"/>
<path d="M82.9956 75.3945H101.863" stroke="#0A2C51" stroke-width="2" stroke-linecap="round" stroke-linejoin="round"/>
<path d="M58.8159 61.7559H63.1084C64.9655 61.7559 66.4742 63.2774 66.4742 65.1504V72.5264C66.4742 74.3994 64.9655 75.9209 63.1084 75.9209H58.8159V61.7559Z" stroke="#0A2C51" stroke-width="2" stroke-linecap="round" stroke-linejoin="round"/>
<path d="M69.4951 71.8798V73.0051C69.4951 74.6164 70.7925 75.9248 72.3901 75.9248H74.2621C75.8597 75.9248 77.1571 74.6164 77.1571 73.0051V72.1714C77.1571 70.7545 76.2267 69.5059 74.8737 69.1171L71.7785 68.2198C70.4292 67.8273 69.4951 66.5824 69.4951 65.1655V64.6795C69.4951 63.0682 70.7925 61.7598 72.3901 61.7598H74.2621C75.8597 61.7598 77.1571 63.0682 77.1571 64.6795V65.9244" stroke="#0A2C51" stroke-width="2" stroke-linecap="round" stroke-linejoin="round"/>
<path d="M55.7987 75.9247L53.2669 61.7559H50.6685L48.1367 75.9247" stroke="#0A2C51" stroke-width="2" stroke-linecap="round" stroke-linejoin="round"/>
<path d="M55.0687 71.834H48.8672" stroke="#0A2C51" stroke-width="2" stroke-linecap="round" stroke-linejoin="round"/>
</g>
<defs>
<clipPath id="clip0_12319_2340">
<rect width="70" height="60" fill="white" transform="translate(40 45)"/>
</clipPath>
</defs>
</svg>
