<svg width="150" height="150" viewBox="0 0 150 150" fill="none" xmlns="http://www.w3.org/2000/svg">
<g clip-path="url(#clip0_12319_2341)">
<path d="M45.7402 43.5015L41.5466 59.1834C41.4006 59.7293 41.7239 60.2905 42.2687 60.4367L63.616 66.1681C64.1609 66.3144 64.7209 65.9904 64.8669 65.4445L69.0605 49.7626C69.2065 49.2167 68.8831 48.6555 68.3383 48.5093L46.991 42.7779C46.4462 42.6316 45.8861 42.9556 45.7402 43.5015Z" stroke="#0A2C51" stroke-width="2" stroke-linecap="round" stroke-linejoin="round"/>
<path d="M68.3656 51.8151L54.766 56.4817L45.3169 45.625" stroke="#0A2C51" stroke-width="2" stroke-linecap="round" stroke-linejoin="round"/>
<path d="M97.2386 90.3202L96.4937 90.828L96.1021 90.0163C94.7851 87.2771 91.4217 86.2383 88.7916 87.758C86.8142 88.9006 85.7929 91.205 86.3074 93.4326C87.5937 98.9725 92.8423 104.47 92.8423 104.47C92.8423 104.47 100.13 102.339 104.008 98.1877C105.567 96.518 105.831 94.0096 104.691 92.0283C103.174 89.393 99.7419 88.6082 97.2347 90.3202H97.2386Z" stroke="#0A2C51" stroke-width="2" stroke-linecap="round" stroke-linejoin="round"/>
<path d="M57.8872 76.7173L46.1843 79.8605C41.55 81.107 38.7971 85.8813 40.0411 90.5287C41.2851 95.1761 46.05 97.9345 50.6843 96.6919L62.3872 93.5488L65.0787 93.3333C70.2889 92.914 75.4953 93.9335 80.145 96.2495C81.1778 96.765 82.3335 95.8378 82.034 94.7221L74.3166 65.8568C74.0171 64.7411 72.5542 64.5179 71.9169 65.4797C69.0487 69.8155 65.0479 73.3049 60.3253 75.5555L57.8872 76.7173Z" stroke="#0A2C51" stroke-width="2" stroke-linecap="round" stroke-linejoin="round"/>
<path d="M62.3948 93.5828L57.8872 76.7168" stroke="#0A2C51" stroke-width="2" stroke-linecap="round" stroke-linejoin="round"/>
<path d="M60.8628 94.207L69.6707 104.644C70.3311 105.429 69.9549 106.637 68.9643 106.903L64.257 108.165C63.1896 108.453 62.0531 108.095 61.339 107.245L52.4082 96.6461" stroke="#0A2C51" stroke-width="2" stroke-linecap="round" stroke-linejoin="round"/>
<path d="M85.9543 52.6908C91.514 47.1239 100.529 47.1239 106.089 52.6908C111.648 58.2576 111.648 67.287 106.089 72.8577C101.335 77.6205 94.0519 78.3053 88.5652 74.9236L82.4335 76.3817L83.8887 70.2416C80.5099 64.7478 81.1933 57.4536 85.9505 52.6946L85.9543 52.6908Z" stroke="#0A2C51" stroke-width="2" stroke-linecap="round" stroke-linejoin="round"/>
<ellipse cx="90.2663" cy="62.7713" rx="1.53581" ry="1.53887" fill="#0A2C51"/>
<ellipse cx="96.0256" cy="62.7713" rx="1.53581" ry="1.53887" fill="#0A2C51"/>
<ellipse cx="101.785" cy="62.7713" rx="1.53581" ry="1.53887" fill="#0A2C51"/>
</g>
<defs>
<clipPath id="clip0_12319_2341">
<rect width="74" height="69" fill="white" transform="translate(38 41)"/>
</clipPath>
</defs>
</svg>
